<svg width="10" height="10" viewBox="0 0 10 10" fill="none" xmlns="http://www.w3.org/2000/svg">
<path fill-rule="evenodd" clip-rule="evenodd" d="M0 4.73223C0 4.55296 0.0658408 4.38104 0.183038 4.25429C0.300235 4.12753 0.459188 4.05632 0.62493 4.05632H7.86537L5.18192 1.15531C5.06458 1.02839 4.99865 0.856253 4.99865 0.676764C4.99865 0.497275 5.06458 0.325138 5.18192 0.19822C5.29927 0.0713019 5.45842 0 5.62437 0C5.79032 0 5.94948 0.0713019 6.06682 0.19822L9.8164 4.25368C9.8746 4.31647 9.92077 4.39105 9.95228 4.47317C9.98378 4.55529 10 4.64332 10 4.73223C10 4.82113 9.98378 4.90916 9.95228 4.99128C9.92077 5.0734 9.8746 5.14798 9.8164 5.21077L6.06682 9.26623C5.94948 9.39315 5.79032 9.46445 5.62437 9.46445C5.45842 9.46445 5.29927 9.39315 5.18192 9.26623C5.06458 9.13931 4.99865 8.96718 4.99865 8.78769C4.99865 8.6082 5.06458 8.43606 5.18192 8.30914L7.86537 5.40814H0.62493C0.459188 5.40814 0.300235 5.33692 0.183038 5.21017C0.0658408 5.08341 0 4.91149 0 4.73223Z" fill="#EEB609"/>
</svg>
